<svg width="25" height="24" viewBox="0 0 25 24" fill="none" xmlns="http://www.w3.org/2000/svg">
<path d="M16.952 0C17.0078 0 17.0637 0 17.1227 0C17.2597 1.69253 16.6137 2.95719 15.8285 3.87301C15.0581 4.78251 14.0032 5.6646 12.297 5.53076C12.1832 3.86247 12.8302 2.69161 13.6143 1.77789C14.3415 0.92636 15.6747 0.168621 16.952 0Z" fill="black"/>
<path d="M22.1171 17.6169C22.1171 17.6337 22.1171 17.6485 22.1171 17.6643C21.6376 19.1165 20.9536 20.3612 20.119 21.5162C19.357 22.5648 18.4233 23.976 16.756 23.976C15.3154 23.976 14.3584 23.0496 12.882 23.0243C11.3201 22.999 10.4612 23.7989 9.0332 24.0002C8.86984 24.0002 8.70649 24.0002 8.5463 24.0002C7.49769 23.8485 6.65143 23.018 6.03491 22.2698C4.21696 20.0587 2.81214 17.2027 2.55078 13.5478C2.55078 13.1895 2.55078 12.8323 2.55078 12.4739C2.66144 9.85821 3.93242 7.73148 5.62179 6.70079C6.51337 6.15277 7.73903 5.6859 9.1038 5.89457C9.68871 5.9852 10.2863 6.18544 10.81 6.38357C11.3064 6.57432 11.9271 6.91262 12.5152 6.8947C12.9136 6.88311 13.3098 6.67549 13.7114 6.529C14.8875 6.10429 16.0404 5.6174 17.5601 5.84609C19.3865 6.12221 20.6828 6.93369 21.4837 8.1857C19.9387 9.16897 18.7173 10.6507 18.926 13.1811C19.1114 15.4796 20.4478 16.8244 22.1171 17.6169Z" fill="black"/>
</svg>
