<svg width="48" height="48" viewBox="0 0 48 48" fill="none" xmlns="http://www.w3.org/2000/svg">
<path d="M21.3335 16L34.6668 16" stroke="#1B3B2F" stroke-width="1.5" stroke-linecap="round" stroke-linejoin="round"/>
<path d="M28 24L34.6667 24" stroke="#1B3B2F" stroke-width="1.5" stroke-linecap="round" stroke-linejoin="round"/>
<path d="M24 32L34.6667 32" stroke="#1B3B2F" stroke-width="1.5" stroke-linecap="round" stroke-linejoin="round"/>
<path d="M13.3335 16L16.0002 16" stroke="#1B3B2F" stroke-width="1.5" stroke-linecap="round" stroke-linejoin="round"/>
<path d="M13.3335 24L22.6668 24" stroke="#1B3B2F" stroke-width="1.5" stroke-linecap="round" stroke-linejoin="round"/>
<path d="M13.3335 32L18.6668 32" stroke="#1B3B2F" stroke-width="1.5" stroke-linecap="round" stroke-linejoin="round"/>
<path d="M20.8333 16.0002C20.8333 17.1968 19.8633 18.1668 18.6667 18.1668C17.47 18.1668 16.5 17.1968 16.5 16.0002C16.5 14.8035 17.47 13.8335 18.6667 13.8335C19.8633 13.8335 20.8333 14.8035 20.8333 16.0002Z" stroke="#1B3B2F"/>
<circle cx="25.3332" cy="24.0002" r="2.16667" stroke="#1B3B2F"/>
<path d="M23.4998 32.0002C23.4998 33.1968 22.5298 34.1668 21.3332 34.1668C20.1366 34.1668 19.1665 33.1968 19.1665 32.0002C19.1665 30.8035 20.1366 29.8335 21.3332 29.8335C22.5298 29.8335 23.4998 30.8035 23.4998 32.0002Z" stroke="#1B3B2F"/>
<circle cx="34" cy="15" r="4" fill="#D50000"/>
</svg>
