<svg width="25" height="24" viewBox="0 0 25 24" fill="none" xmlns="http://www.w3.org/2000/svg">
<path d="M24.6667 12C24.6667 17.9897 20.2783 22.9542 14.5417 23.8542V15.4688H17.3378L17.8699 12H14.5417V9.74906C14.5417 8.79984 15.0067 7.875 16.4974 7.875H18.0105V4.92188C18.0105 4.92188 16.6371 4.6875 15.3241 4.6875C12.5833 4.6875 10.7917 6.34875 10.7917 9.35625V12H7.74487V15.4688H10.7917V23.8542C5.05519 22.9542 0.666748 17.9897 0.666748 12C0.666748 5.37281 6.03956 0 12.6667 0C19.2939 0 24.6667 5.37281 24.6667 12Z" fill="#1877F2"/>
<path d="M17.3378 15.4688L17.8699 12H14.5417V9.74902C14.5417 8.80003 15.0067 7.875 16.4973 7.875H18.0105V4.92188C18.0105 4.92188 16.6372 4.6875 15.3243 4.6875C12.5833 4.6875 10.7917 6.34875 10.7917 9.35625V12H7.74487V15.4688H10.7917V23.8542C11.4027 23.95 12.0289 24 12.6667 24C13.3046 24 13.9308 23.95 14.5417 23.8542V15.4688H17.3378Z" fill="white"/>
</svg>
