<svg width="24" height="24" viewBox="0 0 24 24" fill="none" xmlns="http://www.w3.org/2000/svg">
<path d="M23.8068 9.77869C23.9135 9.77869 24 9.86517 24 9.97186V12C24 12.7591 23.9295 13.5013 23.7943 14.2213C22.7481 19.8139 17.8211 24.0404 11.9154 23.9997C5.2887 23.954 -0.0146415 18.5997 3.03692e-05 11.973C0.0146085 5.35809 5.3817 0 12 0C15.2425 0 18.1844 1.28634 20.3444 3.37584C20.4224 3.45127 20.4244 3.57558 20.3477 3.65227L17.4784 6.52153C17.4045 6.59541 17.2852 6.59733 17.2095 6.52528C15.8538 5.23486 14.0196 4.44263 12 4.44263C7.82947 4.44263 4.47111 7.77713 4.4428 11.9475C4.41434 16.1453 7.80884 19.5573 12 19.5573C15.4005 19.5573 18.2767 17.3109 19.2251 14.2213H12.1932C12.0865 14.2213 12 14.1348 12 14.0281V9.97181C12 9.86513 12.0865 9.77864 12.1932 9.77864H23.8068V9.77869Z" fill="#2196F3"/>
<path d="M5.13565 8.83509L1.49121 6.20184C3.5358 2.50383 7.47574 0 12 0C15.2425 0 18.1845 1.28634 20.3444 3.37584C20.4224 3.45127 20.4244 3.57558 20.3477 3.65227L17.4784 6.52153C17.4047 6.59527 17.2854 6.59756 17.2099 6.52566C15.8542 5.235 14.0198 4.44267 12 4.44267C8.95634 4.44267 6.33274 6.24192 5.13565 8.83509Z" fill="#F44336"/>
<path d="M20.8027 20.1554C18.6113 22.5201 15.4783 24.0002 12 24.0002C7.30187 24.0002 3.23443 21.3003 1.26465 17.3671L4.98535 14.8174C6.10187 17.5955 8.82202 19.5575 12 19.5575C13.9943 19.5575 15.8081 18.7849 17.1583 17.5226L20.8027 20.1554Z" fill="#4CAF50"/>
<path d="M4.44267 11.9993C4.44267 12.995 4.63533 13.9459 4.98544 14.8166L1.26469 17.3662C0.455391 15.7514 0 13.9285 0 11.9993C0 9.89633 0.540844 7.9198 1.49119 6.20117L5.13562 8.83442C4.69088 9.79681 4.44267 10.8694 4.44267 11.9993Z" fill="#FFC107"/>
</svg>
