<svg width="32" height="32" viewBox="0 0 32 32" fill="none" xmlns="http://www.w3.org/2000/svg">
<path d="M24.1781 14.6665C24.954 21.8338 28 23.9998 28 23.9998H4C4 23.9998 8 21.1554 8 11.1998C8 8.93665 8.84285 6.76617 10.3431 5.16586C11.8434 3.56554 13.8783 2.6665 16 2.6665C16.4497 2.6665 16.8956 2.7069 17.3333 2.78582" stroke="#1B3B2F" stroke-width="2" stroke-linecap="round" stroke-linejoin="round"/>
<path d="M25.3335 10.6665C27.5427 10.6665 29.3335 8.87564 29.3335 6.6665C29.3335 4.45737 27.5427 2.6665 25.3335 2.6665C23.1243 2.6665 21.3335 4.45737 21.3335 6.6665C21.3335 8.87564 23.1243 10.6665 25.3335 10.6665Z" fill="#D50000"/>
<path d="M18.3067 28C18.0723 28.4041 17.7359 28.7396 17.331 28.9727C16.9262 29.2059 16.4672 29.3287 16 29.3287C15.5328 29.3287 15.0739 29.2059 14.6691 28.9727C14.2643 28.7396 13.9278 28.4041 13.6934 28" stroke="#1B3B2F" stroke-width="2" stroke-linecap="round" stroke-linejoin="round"/>
</svg>
