<svg width="33" height="32" viewBox="0 0 33 32" fill="none" xmlns="http://www.w3.org/2000/svg">
<path d="M25.9329 26.6668H7.26628C5.79352 26.6668 4.59961 25.473 4.59961 24.0002V12.0002C4.59961 10.5274 5.79352 9.3335 7.26628 9.3335H25.9329C27.4057 9.3335 28.5996 10.5274 28.5996 12.0002V24.0002C28.5996 25.473 27.4057 26.6668 25.9329 26.6668Z" stroke="#B3B3B3" stroke-width="1.4"/>
<path d="M9.93311 9.33333V4.8C9.93311 4.35817 10.2913 4 10.7331 4H22.4664C22.9083 4 23.2664 4.35817 23.2664 4.8V9.33333" stroke="#B3B3B3" stroke-width="1.4"/>
<path d="M13.9331 4V9.33333" stroke="#B3B3B3" stroke-width="1.4"/>
<path d="M16.5996 4V9.33333" stroke="#B3B3B3" stroke-width="1.4"/>
<path d="M22.5998 18.6668C22.2316 18.6668 21.9331 18.3683 21.9331 18.0002C21.9331 17.632 22.2316 17.3335 22.5998 17.3335C22.9679 17.3335 23.2664 17.632 23.2664 18.0002C23.2664 18.3683 22.9679 18.6668 22.5998 18.6668Z" fill="black" stroke="#B3B3B3" stroke-width="1.4" stroke-linecap="round" stroke-linejoin="round"/>
</svg>
