<svg width="16" height="17" viewBox="0 0 16 17" fill="none" xmlns="http://www.w3.org/2000/svg">
<path d="M0.666504 13.8333V13.1667C0.666504 10.5893 2.75584 8.5 5.33317 8.5C7.9105 8.5 9.99984 10.5893 9.99984 13.1667V13.8333" stroke="#B3B3B3" stroke-width="1.2" stroke-linecap="round"/>
<path d="M8.6665 9.83333C8.6665 7.9924 10.1589 6.5 11.9998 6.5C13.8408 6.5 15.3332 7.9924 15.3332 9.83333V10.1667" stroke="#B3B3B3" stroke-width="1.2" stroke-linecap="round"/>
<path d="M5.33317 8.49984C6.8059 8.49984 7.99984 7.3059 7.99984 5.83317C7.99984 4.36041 6.8059 3.1665 5.33317 3.1665C3.86041 3.1665 2.6665 4.36041 2.6665 5.83317C2.6665 7.3059 3.86041 8.49984 5.33317 8.49984Z" stroke="#B3B3B3" stroke-width="1.2" stroke-linecap="round" stroke-linejoin="round"/>
<path d="M12 6.5C13.1046 6.5 14 5.60457 14 4.5C14 3.39543 13.1046 2.5 12 2.5C10.8954 2.5 10 3.39543 10 4.5C10 5.60457 10.8954 6.5 12 6.5Z" stroke="#B3B3B3" stroke-width="1.2" stroke-linecap="round" stroke-linejoin="round"/>
</svg>
